/* XPM */
static char *bitcoin64[] = {
/* columns rows colors chars-per-pixel */
"64 64 256 2 ",
"   c #0E351E",
".  c #0F3720",
"X  c #0F3B22",
"o  c #103E24",
"O  c #0F4025",
"+  c #104226",
"@  c #114629",
"#  c #124C2C",
"$  c #1D4B2B",
"%  c #14512F",
"&  c #1F502F",
"*  c #145531",
"=  c #1F5231",
"-  c #155933",
";  c #21532D",
":  c #27562F",
">  c #39572D",
",  c #215533",
"<  c #215B34",
"1  c #235C38",
"2  c #2C5D36",
"3  c #365D36",
"4  c #236136",
"5  c #24613A",
"6  c #2D6237",
"7  c #3A6436",
"8  c #31663C",
"9  c #37663A",
"0  c #4B612E",
"q  c #4D6D2E",
"w  c #426435",
"e  c #44653A",
"r  c #446C3B",
"t  c #4D6934",
"y  c #566A37",
"u  c #4E723A",
"i  c #477136",
"p  c #5B753D",
"a  c #5C7933",
"s  c #55742F",
"d  c #6B6D2D",
"f  c #626E32",
"g  c #6D7532",
"h  c #657536",
"j  c #717C3D",
"k  c #75793A",
"l  c #77732F",
"z  c #326A43",
"x  c #3D6B44",
"c  c #316742",
"v  c #3F7449",
"b  c #476C42",
"n  c #4A6E49",
"m  c #496E46",
"M  c #576E42",
"N  c #497346",
"B  c #4B744B",
"V  c #4F7A4A",
"C  c #457447",
"Z  c #527443",
"A  c #547C4C",
"S  c #587749",
"D  c #4E7B53",
"F  c #4E7750",
"G  c #597B52",
"H  c #577950",
"J  c #677941",
"K  c #677B49",
"L  c #767D44",
"P  c #647E55",
"I  c #847D34",
"U  c #81782F",
"Y  c #768435",
"T  c #5C855B",
"R  c #5D8457",
"E  c #57814D",
"W  c #6D854F",
"Q  c #698548",
"!  c #788447",
"~  c #698759",
"^  c #798753",
"/  c #7A8D57",
"(  c #7D8C5C",
")  c #738B5D",
"_  c #7C925C",
"`  c #7B914A",
"'  c #6A8D64",
"]  c #6B8E68",
"[  c #788D62",
"{  c #759263",
"}  c #7D9462",
"|  c #7B9966",
" . c #7B9D73",
".. c #95952D",
"X. c #87833B",
"o. c #878E3C",
"O. c #868733",
"+. c #92853B",
"@. c #968838",
"#. c #889337",
"$. c #868C2C",
"%. c #A48933",
"&. c #BA9233",
"*. c #BF9A3E",
"=. c #B69439",
"-. c #AA9637",
";. c #B2A635",
":. c #A5A23B",
">. c #C59532",
",. c #C69836",
"<. c #CA9D3C",
"1. c #C0AC2A",
"2. c #C1AD33",
"3. c #FACC35",
"4. c #8A8943",
"5. c #82884E",
"6. c #8C8B4B",
"7. c #858647",
"8. c #9A8D43",
"9. c #88974D",
"0. c #889747",
"q. c #969D4B",
"w. c #979548",
"e. c #848D53",
"r. c #8C8E54",
"t. c #8D9353",
"y. c #88925E",
"u. c #88965A",
"i. c #909356",
"p. c #9B9556",
"a. c #92955B",
"s. c #9E9A5D",
"d. c #959B5B",
"f. c #908F56",
"g. c #AE994D",
"h. c #A3964E",
"j. c #B69742",
"k. c #AF9C50",
"l. c #A69B55",
"z. c #B19E53",
"x. c #B29F58",
"c. c #97A253",
"v. c #A4A34A",
"b. c #A5A654",
"n. c #A5AA5C",
"m. c #A5A856",
"M. c #BEA65B",
"N. c #B5A657",
"B. c #B4B25A",
"V. c #8D9E6C",
"C. c #859766",
"Z. c #969962",
"A. c #A19F64",
"S. c #8EA06E",
"D. c #89A065",
"F. c #97A46A",
"G. c #89A275",
"H. c #88A479",
"J. c #91A173",
"K. c #9BA973",
"L. c #9AA978",
"P. c #A5AC64",
"I. c #A9A667",
"U. c #BAAD6D",
"Y. c #B5A969",
"T. c #A6B16D",
"R. c #B3B363",
"E. c #B4B56B",
"W. c #AAAE7A",
"Q. c #A0AE7C",
"!. c #B2AE73",
"~. c #A4B27C",
"^. c #A9B278",
"/. c #BEB376",
"(. c #B6B37C",
"). c #B5B970",
"_. c #C19D45",
"`. c #CDA246",
"'. c #C4A34E",
"]. c #CEA449",
"[. c #D0A84F",
"{. c #C8A756",
"}. c #D1A951",
"|. c #D3AD58",
" X c #D0BE54",
".X c #D0BF5B",
"XX c #C7B46A",
"oX c #D6B361",
"OX c #DAB86B",
"+X c #D1B76E",
"@X c #CBBB7C",
"#X c #C2B97F",
"$X c #DDBE74",
"%X c #D5BE79",
"&X c #D1B870",
"*X c #C4AF6A",
"=X c #DEC24C",
"-X c #DEC556",
";X c #D1C15B",
":X c #EDC842",
">X c #FBD65B",
",X c #D1C264",
"<X c #D2CA7C",
"1X c #EDD163",
"2X c #EED36C",
"3X c #E1C37B",
"4X c #E0CF7A",
"5X c #E9D477",
"6X c #FCDB70",
"7X c #FCDF7B",
"8X c #A2B485",
"9X c #A6BA8D",
"0X c #A7B789",
"qX c #B8BD88",
"wX c #C2BB80",
"eX c #BCC08E",
"rX c #B5C599",
"tX c #B8C292",
"yX c #C8C386",
"uX c #D4C68A",
"iX c #CCCD99",
"pX c #C6C992",
"aX c #D5D39B",
"sX c #E4C983",
"dX c #E7CE8A",
"fX c #E7D885",
"gX c #E0D293",
"hX c #EAD392",
"jX c #EEDF91",
"kX c #EED99A",
"lX c #E2DA9A",
"zX c #FDE284",
"xX c #FDE58E",
"cX c #EFE29A",
"vX c #EFE091",
"bX c #FDE997",
"nX c #C4D0A3",
"mX c #DCDCAA",
"MX c #E1DEA3",
"NX c #F0DFA3",
"BX c #EEE6A8",
"VX c #FEECA1",
"CX c #F4E4AA",
"ZX c #FEEFAB",
"AX c #F2E2A6",
"SX c #EAE5B1",
"DX c #EFEFBF",
"FX c #F5EBB3",
"GX c #F9EFBA",
"HX c #F0EFBF",
"JX c #FEF3B4",
"KX c #FFF7BF",
"LX c #FBF4C2",
"PX c #FFFAC9",
"IX c #EFEFC0",
"UX c None",
/* pixels */
"UXUXUXUX* * * * * * % % % % % % % # # % # # # # # # @ @ # @ @ @ @ @ + + @ + + + + o o o o o X X X X X X . . . . .       UXUXUXUX",
"UXUXUX* * * * * * * * * % % % % % # % # # # # # @ # # # @ @ @ @ @ @ @ + + + + + + o o + o o o X X X X X . . . .         . UXUXUX",
"UXUX- * * * * * % * $ % % % % % % % % # # # # # # # @ # @ # # @ @ @ @ + + + + + o + + o o o o o X X X X X . . . .           UXUX",
"UX- - * - * * * * * % % % % % % % # % % # % # # # # @ # # @ @ @ @ @ @ @ @ @ + + + + + o o + o o X X X X X X . X . .           UX",
"- - - - * * * * * * * % * % % % % % % % # # # # # # # # # @ @ # @ @ @ @ @ + + + + + + + + o o o o X o X X X X . . . .           ",
"- - - - - - * * * * * * % * % * % % % # % # % % # # @ # @ # @ # @ @ @ @ + @ + @ + @ + o + o + o o o X o X X X X . . . .         ",
"- - - - * - - * * * * * * % * % % % % % # % # % # # # # # @ @ @ @ @ + @ @ @ @ + + + + + + o + o o o o o X X X X . . . .         ",
"- - - - - * * - - * * * * * * % * % % % # % % # # # B  .V.qX!.!.Y.Y.I.5.J 7 + @ + @ + + + + o + o o o o X o X X X X .           ",
"- - - - - - - * * * * * * * * * % * % % % % 1 ] rXSXtXC.H n ; # # & e b L h.{.8.y $ o @ + + o o + o o o o X X X X X . . . . . . ",
"- - - - - - - - - - - * * * * * % % * % < G.DX9XG % % % # % # ; = # @ @ @ @ @ 0 U &.d $ o o + + o o + o o o o X X . X . X . .   ",
"- - - - - - - - * - * * * * * % % - < G.MXG.1 % % % # # # n , y.y.; e # @ @ @ @ @ $ d &.g $ o @ + + o o o o o X X X X X . . . . ",
"- - - - * - - - - * - * * * * * % v gX~.< * % % # ] x pXS.uX#XdXsXU.*X5.x.3 y @ @ @ o @ I j.> o o + + o o o o o o X X X X . . . ",
"- - - - - - - - - - - * * - * * _ jXV * 1 1 % 9XH.SXiXL.V.W.( ( ( ^ s.5.6.g.'.k I @ $ $ o 0 '.h + + o + o + o o o X X X X . . X ",
"- - - - - - - - - - - - - * * P.<X1 * * F DXrXIX9XL.iXCXNXkXhXdXsX3X$XOXoXk.L X._.I &.> + + $ g.5.+ + o + o o o o X X X X X . . ",
"- - - - - - - - - - - * * * P.E.1 * * R G.FX9XrXLXGXFXCXNXkXhXdXsX3X$XOXoX|.}.].I I &.l 0 + + $ p.r.+ + o o o o o o X X X X X . ",
"- - - - - - - - - - - - - n.R.* - * 1 lXpX9XPXPXLXGXFXCXNXkXhXdXsX3X$XOXoX|.}.].`.<.U %.&.$ @ + o p.f.+ @ o + o o o X X X X X X ",
"- - * * - - - - - - - - ` ,X4 - - D.cXqXaXKXPXPXLXHXFXaXL.) n n b b P i.{.|.}.].`.,.>.%.I _.k o + $ Y.K o @ o @ o o o o o X X X ",
"* - - * * - - - - - - i 1X4 - 4 D.vXK.cXJXHXPXPXLX8XF % % * % # # # % # # w 7.].<.,.>.,.,.k '.L + + $ %X3 o o o o o o o o o X X ",
"* * - - - - - - - - 4 -XE - - 4 fXF.cXZXJXKXPXnXc % % % * % % % % # # # # @ # : %.<.>.,.<._.L {.$ @ @ M wX$ @ o o o o o o X o X ",
"* % * * * - - - - - 0.v.- - Q 5X).vXVXZXJXKX .* * * % % % % % # % % # # # # # # @ f >.,.<.`.'.8.M.M @ + Z.[ o o @ o o @ o o o X ",
"% * * * - * * - - 4 =X4 4 V u.,X<XbXVXZXBXT - - % * % * * % % % % % % % # # # # % # 0 &.`.`.].g.x.L e $ & uX$ o + o + o o o o o ",
"* % * % - - - * - #.0.- 4 2X5XT.xXbXVXZXR - * - * * * % % % % % % @ % # % # # # @ # % 0 <.`.}.|.6.XX&X$ o ( y.o + + + o o o o o ",
"% * * * * * * * 4 :X4 - - B.P.zXxXbXVX| - * * * % * * % * % % % % % % # % # # # # # @ # f `.[.|.oXf.p.@ + & gX$ + + o + o o o o ",
"% % * * * * * * Y :.- - m.2XR.zXxXbXwX- - - - H.LXmXT aXNXyX1 % % 2 *XOXx.J '.'.y # @ # @ 8.[.|.oXp.&Xa.@ + K.P + + + o @ o o o ",
"% % % % * * * * ;.a - - 9.n.7XzXxXbXz - - * z PXIXHXFXBXNXkX) % % y.$XOXoX|.}.].*.@ # # @ : ].|.oXOXZ.L o @ S 8X+ + + + + + o o ",
"% % % % % * % * 3.- - Q 1Xc.7XzXxXT.- - - - z DXH.SXJXCXNX6 H % % K 6 OXoX|.g.j `.% # # # # 4.|.oXOXe.%XP @ o CX@ + + + + o @ o ",
"# % % % % * * q 1.* - 7 ;X,X7XzXxXE - - - - - D - ' FXAXNXb % * % * N OXoX|.t # w @ % @ # # w |.oXOXY.*X3 @ + qXn + + + + o o + ",
"% # % % % % * Y $.* -  Xm.6X7XzX4X- - - - - - - - 4 FXCXNXV.* * % % i.OXoX{.* # # % % % # # @ N.oXOX$Xa.#X@ + C.[ + @ + @ + @ o ",
"# # # % % % % ..a - - q.q.6X7XzXT.- - - - - - - - * 8XAXNXuX* * * * +XOXoX7.# # % % @ @ # # @ 7.oXOX$Xy.y.@ @ G G.@ @ + + o + + ",
"# # % % # % % 1.q - u -XB.6X7XzX_ - - - - - - - - - R CXNXkXx - * Z $XOXoX9 % * % # % % % # # J oXOX$XA.@Xb @ n eX@ + + @ + @ + ",
"# # % # % % % 1.< * < ;X0.6X7XzXE - - - - - - - * H.SXCXNXkXV.* * a.$XOXoX{.M * % % % # # % % e oXOX$X^ /.& @ , eX+ @ + + + + o ",
"# # # # # % % 1.% < ..>X9.6X7XzXE - - - - - - - C GXFXAXNXkXyX* 1 3X$XOXoX|.}.2 % # % % % # @ e oXOX$X^ dXC.= @ eX@ @ @ @ @ + @ ",
"@ # @ * # # # 1.* : w.>X9.6X7XzXD - - - - - - - E mX' 0XNXkXhXH P 3X$XOX5.p '.w * % % % % # # w oXOX$X^ sXy.& @ pX+ + @ + + @ @ ",
"@ # # # * # % 1.; % :  X9.6X7XzXV - - - - - - - 5 C - - yXkXhXF.I.3X$Xi.% * r % % % % # % # # w oXOX$X^ #X& @ , eX@ # + @ @ + @ ",
"# # @ # @ # % 1.q * i -XB.6X7XzX_ - - - - - - - - - - - ~ kXhXuXsX3X$XZ * % % * % % % % % % # J oXOX$XA.wXm # n eX# @ @ @ @ @ + ",
"@ @ # # # # # ..s % % q.q.6X7XzXP.* - - - - - - - - - - 5 gXhXdXsX3X*X% * * * % % % % * % # % 6.oXOX$Xy.y.# # H J.@ @ # @ @ + @ ",
"# # # @ # # # $.$.% % =Xb.6X7XzXfX- - - - - - - - - - - - K.hXdXsX3Xt.% * % * % * % % % % % # N.oXOX$Xa./.% # C.[ # # @ @ @ @ @ ",
"@ @ @ # @ # # q ;.% % 2 .X,X7XzXvXV * * * - - - - - -  .4 F.hXdXsX3XW < Z % % - % * % % % % w |.oXOXY./.2 # % qXn @ # @ # @ @ @ ",
"@ # @ # # # # # 3.# % Q 1Xc.7XzXxXT.* * * - - - - - - Q.AXkXhXdXsX3X$XOX! % - % * % * * % % 4.|.oXOXe.%XP @ % AX# # @ # # @ @ @ ",
"@ @ @ @ @ @ # @ ;.s # # 9.m.7XzXxXbX6 * * - - - - - - v lXkXhXdXsX3X3XXX6 - % - * * % % % 2 [.|.oXOXa./ @ % H W.# # # @ # @ # @ ",
"@ @ @ @ @ @ # # h :.# # v.2XR.zXxXbXeX* * * - * - - - - z { | _ _ / W < * - * * * * * % # 8.}.|.oXp.&Xa.% # L.~ # # # @ # @ @ # ",
"@ @ @ @ @ # # @ ; :X; % % B.n.zXxXbXVX| * * * - * - - - - - - - - - - * * * * * * * * * h `.}.|.oXi.s.% # = gX1 # # # # @ # @ @ ",
"@ @ @ @ @ @ @ # @ #.o.# 2 2X5XP.xXbXVXZXR * * * - - - - - - - - - - - - * - - * * * * t ,.`.[.|.t.+X&X, # } } # # # # # @ # # @ ",
"+ + @ + @ @ @ @ @ ; =X; ; u u.XX<XbXVXZXBXR * * * * - - - - - - - - - * - - * * * % q &.`.`.[.k.l.! b , , yX= # # # # # # # # @ ",
"+ + + @ @ @ @ # @ # o.v.# # S 4X).jXVXZXJXKX .* % - - - - - - - - - - - - - * - * h >.,.<.`.'.w.M.Z % % K.y.% # # # # # # # @ # ",
"@ + + @ @ @ @ @ # @ ; -Xa # # , fXF.cXZXJXKXPXnXz - % - - - - - - - - - - * - 6 @.,.>.,.<._.! {.= % % S @X1 # % % % # # # # # # ",
"+ + + + @ @ @ @ @ # @ 7 1X= # # u.vXF.BXJXKXPXPXLX8XD % - - - - - - - - - i 4.].`.<.>.,.*.X.'.L , * , %Xc # % % # # # % # # # @ ",
"+ + + + + @ @ @ @ @ # # ! ,X; % % D.vXeXaXKXPXPXLXGXFXaXQ.{ B C C N W d.M.|.}.[.<.<.>.%.@.j.Y * * < Y.W % % % # % % # % # # # # ",
"+ + + + + + @ @ @ @ # @ # b.B.% # , , lXpX9XPXPXLXGXFXCXNXkXhXdXsX3X$XOXoX|.}.].<.>.Y %.=.- < - * p.d.% * % % % % # % # # # # # ",
"O + o + + + + @ @ @ @ @ @ # n.R.= % % ~ G.FX9XrXLXGXFXCXNXkXhXdXsX3X$XOXoX|.}.].@.O.&.g i * * < p.t.% * % % % % % % % # # % # # ",
"+ O o + + + + + + @ @ @ @ # @ I.<X= # # F DXrXDX9XL.iXCXNXkXhXdXsX3X3XoXoXz.! o.<.+.&.w * * < z.6.% * * * % * % % % % # % # # % ",
"o o o + + + @ + + @ + @ @ @ @ # / jXG # < = % 9XH.SXiXQ.J.^.y.( _ / A.e.t.z.{.Y X.- 2 < - u '.h - * * * % * % % % % % % # # % # ",
"o o O O + + + + + + @ @ @ @ # @ # x gX~., # # # # ' c pXJ.uXqXdX3XU.XXe.N.9 S - - - - < X.j.9 * * * * * * * * * % % % % % # # % ",
"o o o o o + + + + @ + @ @ @ @ @ @ # , V.MXH.1 # # % % % % B < F._ 1 N - - - - - - < g -.j < * - * - * * * * % * % % % % % % % # ",
"o o o + o O O + + @ @ + + @ @ # # @ @ # 1 G.IX9XT % % % % % * < < - % - - - - u o.&.g < - - - - - - * * * % % % % % % % % % % # ",
". o o o O o O + + + + + @ @ @ @ @ @ # @ # @ , ] 9XGXtXV.G B 1 * * < u Z ! h.}.+.p 4 - * - - - - * * * * * * - % % * % % % % % % ",
". X o o o + O O + + + + + @ + @ @ @ # @ # # # # # % B { S.(.(.!.!.I.I.5.Q r - - - - - - - - - - * - - * * * * * * * % % % % % % ",
"o o X o o o o o o + + + + @ @ @ @ @ @ # # @ # # # # # # # % % % * % * * % - - - - - - - - - - - - - * * * * * * * % * % % % % % ",
". o X X o o o + o O + + + + + @ @ @ @ @ @ @ # @ # # # % # * % % % * * * * - * - - - - - - - - - - - - * * * * * * * % * * * % % ",
". X o X X o o o + o + o + + + + @ @ @ @ @ # # # # # % % # # # % % % % * - % - * - - - - - - - - - - - - * - * * * * * % % * % % ",
"UXo . o o o o o o + O + + + + + + @ @ @ @ @ @ # @ # # # % % % % % % % % * * * * * - - - - - - - - * - - * - - * * * * * * * % UX",
"UXUX. o . o o o o o o O + + + @ + @ @ @ @ # @ @ # # # # @ % # % % % % * * * * * * - - - - - - - - - * = - * * - * * * * * % UXUX",
"UXUXUX. X . X o o o + o O o + + @ + @ @ @ @ @ # # @ @ # @ % % % % % % % % * * * * - - - - - - - - - - - - - - - * * * * * UXUXUX",
"UXUXUXUXX X o X o o X + o + + + + + + @ @ @ @ @ @ # @ # % @ # @ % # % % % % % * * - - - - - - - - - - - - - * * - * * * UXUXUXUX"
};
